G04 EAGLE Gerber RS-274X export*
G75*
%MOMM*%
%FSLAX34Y34*%
%LPD*%
%INTop Copper*%
%IPPOS*%
%AMOC8*
5,1,8,0,0,1.08239X$1,22.5*%
G01*
%ADD10C,1.879600*%
%ADD11C,3.600000*%
%ADD12P,1.583577X8X292.500000*%
%ADD13P,1.583577X8X112.500000*%
%ADD14P,1.583577X8X202.500000*%
%ADD15P,1.583577X8X22.500000*%
%ADD16R,1.651000X1.651000*%
%ADD17C,1.651000*%
%ADD18C,1.463037*%
%ADD19C,2.032000*%
%ADD20C,3.225800*%
%ADD21C,2.340000*%
%ADD22R,1.620000X1.620000*%
%ADD23P,1.814519X8X22.500000*%
%ADD24C,2.540000*%
%ADD25C,0.406400*%
%ADD26C,0.502400*%
%ADD27C,0.552400*%


D10*
X76600Y575800D03*
X101600Y575800D03*
X126600Y575800D03*
D11*
X57600Y645800D03*
X145600Y645800D03*
D12*
X676600Y75700D03*
X676600Y24900D03*
X792000Y74700D03*
X792000Y23900D03*
D13*
X402900Y468000D03*
X402900Y518800D03*
D14*
X444900Y619100D03*
X394100Y619100D03*
D15*
X394100Y588300D03*
X444900Y588300D03*
D13*
X969800Y466700D03*
X969800Y517500D03*
D16*
X207700Y605700D03*
D17*
X207700Y580700D03*
D10*
X707000Y574500D03*
X732000Y574500D03*
X757000Y574500D03*
D11*
X688000Y644500D03*
X776000Y644500D03*
D18*
X883200Y339515D02*
X883200Y324885D01*
X883200Y401085D02*
X883200Y415715D01*
D19*
X111750Y101850D03*
X86350Y101850D03*
D20*
X137150Y25650D03*
X73650Y250D03*
D19*
X322750Y102850D03*
X297350Y102850D03*
D20*
X348150Y26650D03*
X284650Y1250D03*
D19*
X533750Y102850D03*
X508350Y102850D03*
D20*
X559150Y26650D03*
X495650Y1250D03*
D21*
X444542Y657192D03*
X444542Y692192D03*
X444542Y727192D03*
X394542Y727192D03*
X394542Y692192D03*
X394542Y657192D03*
D10*
X617000Y673400D03*
X375900Y302100D03*
X47800Y272100D03*
X454500Y302100D03*
X248300Y302100D03*
X380200Y459900D03*
X948700Y302100D03*
X707000Y299000D03*
X732000Y299000D03*
X757000Y299000D03*
D11*
X688000Y369000D03*
X776000Y369000D03*
D10*
X76600Y298300D03*
X101600Y298300D03*
X126600Y298300D03*
D11*
X57600Y368300D03*
X145600Y368300D03*
D10*
X287100Y298300D03*
X312100Y298300D03*
X337100Y298300D03*
D11*
X268100Y368300D03*
X356100Y368300D03*
D10*
X495700Y298300D03*
X520700Y298300D03*
X545700Y298300D03*
D11*
X476700Y368300D03*
X564700Y368300D03*
D10*
X285800Y575800D03*
X310800Y575800D03*
X335800Y575800D03*
D11*
X266800Y645800D03*
X354800Y645800D03*
D10*
X636800Y407100D03*
X636800Y330900D03*
X191800Y406100D03*
X191800Y329900D03*
X220300Y406700D03*
X220300Y330500D03*
X611600Y407100D03*
X611600Y330900D03*
X770300Y508000D03*
X694100Y508000D03*
X269900Y509500D03*
X346100Y509500D03*
X414900Y330500D03*
X414900Y406700D03*
X269900Y533000D03*
X346100Y533000D03*
X940000Y530100D03*
X940000Y453900D03*
X659300Y663900D03*
X659300Y587700D03*
X694100Y531400D03*
X770300Y531400D03*
X829100Y331600D03*
X829100Y407800D03*
X855900Y331600D03*
X855900Y407800D03*
X769900Y475800D03*
X693700Y475800D03*
X694100Y451700D03*
X770300Y451700D03*
X346100Y475300D03*
X269900Y475300D03*
X346100Y450400D03*
X269900Y450400D03*
X443000Y329900D03*
X443000Y406100D03*
X386800Y406100D03*
X386800Y329900D03*
D22*
X975400Y75400D03*
X955000Y75400D03*
X934600Y75400D03*
X934600Y24600D03*
X955000Y24600D03*
X975400Y24600D03*
X715400Y23900D03*
X735800Y23900D03*
X756200Y23900D03*
X756200Y74700D03*
X735800Y74700D03*
X715400Y74700D03*
X975700Y397100D03*
X955300Y397100D03*
X934900Y397100D03*
X934900Y346300D03*
X955300Y346300D03*
X975700Y346300D03*
X975000Y670600D03*
X954600Y670600D03*
X934200Y670600D03*
X934200Y619800D03*
X954600Y619800D03*
X975000Y619800D03*
D10*
X615800Y593100D03*
X615800Y618500D03*
X615800Y643900D03*
D18*
X443700Y462615D02*
X443700Y447985D01*
X469100Y447985D02*
X469100Y462615D01*
X596100Y462615D02*
X596100Y447985D01*
X596100Y524185D02*
X596100Y538815D01*
X494500Y462615D02*
X494500Y447985D01*
X519900Y447985D02*
X519900Y462615D01*
X570700Y462615D02*
X570700Y447985D01*
X545300Y447985D02*
X545300Y462615D01*
X570700Y524185D02*
X570700Y538815D01*
X545300Y538815D02*
X545300Y524185D01*
X519900Y524185D02*
X519900Y538815D01*
X494500Y538815D02*
X494500Y524185D01*
X469100Y524185D02*
X469100Y538815D01*
X443700Y538815D02*
X443700Y524185D01*
D22*
X493100Y665500D03*
X493100Y645100D03*
X493100Y624700D03*
X543900Y624700D03*
X543900Y645100D03*
X543900Y665500D03*
D10*
X631500Y529900D03*
X631500Y453700D03*
D23*
X507200Y715400D03*
X532600Y715400D03*
D24*
X560100Y221300D03*
X1030100Y221300D03*
X24800Y221300D03*
X494800Y221300D03*
D10*
X620400Y714700D03*
X593100Y714700D03*
X647700Y714700D03*
X244000Y475000D03*
X380000Y540000D03*
X166000Y302000D03*
D25*
X732000Y299000D02*
X732000Y318000D01*
X746000Y332000D01*
X828700Y332000D01*
X829100Y331600D01*
X707000Y299000D02*
X668700Y299000D01*
X636800Y330900D01*
X790100Y23900D02*
X792000Y23900D01*
X790100Y23900D02*
X771000Y43000D01*
X694700Y43000D01*
X676600Y24900D01*
X570700Y440300D02*
X570700Y455300D01*
X570700Y440300D02*
X585500Y425500D01*
X586000Y425000D01*
X585500Y425500D02*
X811400Y425500D01*
X829100Y407800D01*
X855900Y407800D01*
X676600Y75700D02*
X677600Y74700D01*
X715400Y74700D01*
X756200Y74700D02*
X792000Y74700D01*
X346100Y409100D02*
X323000Y386000D01*
X323000Y345000D01*
X355000Y313000D01*
X355000Y146000D01*
X403500Y97500D01*
X403500Y10500D01*
X441000Y-27000D01*
X687000Y-27000D01*
X715400Y1400D02*
X715400Y23900D01*
X715400Y1400D02*
X687000Y-27000D01*
X346100Y450400D02*
X346100Y475300D01*
X346100Y450400D02*
X346100Y409100D01*
X975400Y24600D02*
X975400Y14400D01*
X964000Y3000D01*
X763000Y3000D01*
X756000Y10000D01*
X756000Y23700D01*
X756200Y23900D01*
X769900Y452100D02*
X769900Y475800D01*
X769900Y452100D02*
X770300Y451700D01*
X545300Y531500D02*
X545300Y535300D01*
X566000Y556000D01*
D26*
X599000Y556000D03*
D25*
X566000Y556000D01*
X757000Y299000D02*
X757000Y295000D01*
X955000Y97000D01*
X955000Y75400D01*
X244300Y475300D02*
X244000Y475000D01*
X244300Y475300D02*
X269900Y475300D01*
X280300Y475300D01*
X399000Y493000D02*
X415000Y509000D01*
X587000Y509000D01*
X596100Y518100D01*
X596100Y531500D01*
X298000Y493000D02*
X280300Y475300D01*
X298000Y493000D02*
X399000Y493000D01*
D26*
X619000Y520000D03*
D25*
X619000Y501000D01*
X668300Y451700D01*
X694100Y451700D01*
X855900Y348900D02*
X884000Y377000D01*
X884000Y407600D01*
X883200Y408400D01*
X855900Y348900D02*
X855900Y331600D01*
X883200Y332200D02*
X883200Y192800D01*
X975400Y100600D02*
X975400Y75400D01*
X975400Y100600D02*
X883200Y192800D01*
X955300Y330300D02*
X955300Y346300D01*
X948700Y323700D02*
X948700Y302100D01*
X948700Y323700D02*
X955300Y330300D01*
X948700Y302100D02*
X948700Y151300D01*
X1000000Y100000D01*
X1000000Y60000D01*
X986000Y46000D01*
X955000Y46000D01*
X955000Y24600D01*
X934900Y346300D02*
X934900Y397100D01*
X611000Y560000D02*
X601000Y570000D01*
X611000Y474200D02*
X631500Y453700D01*
X590000Y570000D02*
X585400Y570000D01*
X590000Y570000D02*
X601000Y570000D01*
X611000Y560000D02*
X611000Y476000D01*
X611000Y474200D01*
X520000Y455400D02*
X519900Y455300D01*
X520000Y455400D02*
X520000Y473000D01*
X523000Y476000D01*
X611000Y476000D01*
X631500Y453700D02*
X650200Y435000D01*
X957000Y435000D02*
X976000Y416000D01*
X976000Y397400D01*
X975700Y397100D01*
X957000Y435000D02*
X650200Y435000D01*
X585400Y570000D02*
X558000Y570000D01*
X503300Y624700D02*
X493100Y624700D01*
X503300Y624700D02*
X558000Y570000D01*
X116500Y509500D02*
X76000Y550000D01*
X76000Y575200D01*
X76600Y575800D01*
X116500Y509500D02*
X269900Y509500D01*
X126600Y555400D02*
X126600Y575800D01*
X149000Y533000D02*
X269900Y533000D01*
X149000Y533000D02*
X126600Y555400D01*
X378600Y540000D02*
X380000Y540000D01*
X353100Y540000D02*
X346100Y533000D01*
X353100Y540000D02*
X380000Y540000D01*
X954600Y584600D02*
X954600Y619800D01*
X954600Y584600D02*
X940000Y570000D01*
X940000Y530100D01*
X346100Y533000D02*
X346100Y509500D01*
X394100Y619100D02*
X469100Y544100D01*
X469100Y531500D01*
X953000Y453900D02*
X965800Y466700D01*
X953000Y453900D02*
X940000Y453900D01*
X965800Y466700D02*
X969800Y466700D01*
D26*
X663000Y512000D03*
D25*
X682000Y493000D01*
X826000Y493000D02*
X865000Y454000D01*
X939900Y454000D01*
X940000Y453900D01*
X826000Y493000D02*
X682000Y493000D01*
X443700Y531500D02*
X394100Y581100D01*
X394100Y588300D01*
X217000Y615000D02*
X207700Y605700D01*
X367400Y615000D02*
X394100Y588300D01*
X367400Y615000D02*
X217000Y615000D01*
X615800Y593100D02*
X632900Y593100D01*
X638300Y587700D02*
X659300Y587700D01*
X638300Y587700D02*
X632900Y593100D01*
D27*
X526000Y559000D03*
D25*
X474200Y559000D01*
X444900Y588300D01*
X444900Y619100D01*
X538300Y624700D02*
X543900Y624700D01*
X526000Y637000D02*
X526000Y696000D01*
X526000Y637000D02*
X538300Y624700D01*
X526000Y696000D02*
X532000Y702000D01*
X533000Y702000D01*
X533000Y715000D01*
X532600Y715400D01*
X975000Y619800D02*
X975000Y545000D01*
X969800Y539800D02*
X969800Y517500D01*
X969800Y539800D02*
X975000Y545000D01*
X617000Y673400D02*
X611000Y673400D01*
X596000Y658400D01*
X596000Y629000D01*
X606500Y618500D01*
X615800Y618500D01*
X659500Y618500D01*
X684000Y594000D01*
X684000Y541500D02*
X694100Y531400D01*
X684000Y541500D02*
X684000Y594000D01*
X989000Y495000D02*
X1000000Y484000D01*
X1000000Y387000D01*
X991000Y378000D01*
X959000Y378000D01*
X955000Y382000D01*
X955000Y396800D01*
X955300Y397100D01*
X900000Y495000D02*
X895000Y495000D01*
X900000Y495000D02*
X989000Y495000D01*
X895000Y495000D02*
X877000Y495000D01*
X797000Y575000D01*
X757500Y575000D01*
X757000Y574500D01*
X222700Y580700D02*
X207700Y580700D01*
X222700Y580700D02*
X240000Y598000D01*
X330000Y598000D01*
X336000Y592000D01*
X336000Y576000D01*
X335800Y575800D01*
X191800Y329900D02*
X191800Y251800D01*
X60000Y120000D01*
X60000Y68000D01*
X70000Y58000D01*
X70000Y3900D02*
X73650Y250D01*
X70000Y3900D02*
X70000Y58000D01*
X220300Y22700D02*
X220300Y330500D01*
X241750Y1250D02*
X284650Y1250D01*
X241750Y1250D02*
X220300Y22700D01*
X611600Y24600D02*
X611600Y330900D01*
X611600Y24600D02*
X588000Y1000D01*
X495900Y1000D01*
X495650Y1250D01*
X380200Y459900D02*
X388300Y468000D01*
X402900Y468000D01*
X424900Y468000D01*
X435900Y479000D01*
X459000Y479000D01*
X469100Y468900D01*
X469100Y455300D01*
X380200Y459900D02*
X366000Y445700D01*
X366000Y397000D01*
X386000Y377000D01*
X386000Y360000D01*
D26*
X362000Y321000D03*
D25*
X362000Y336000D01*
X386000Y360000D01*
X386800Y329900D02*
X386800Y313000D01*
X384800Y311000D01*
X381900Y308100D02*
X375900Y302100D01*
X405700Y311000D02*
X410000Y311000D01*
X430000Y311000D01*
X443000Y324000D01*
X443000Y329900D01*
X467000Y427800D02*
X494500Y455300D01*
X467000Y427800D02*
X467000Y398000D01*
X445000Y376000D01*
X444000Y376000D01*
X443000Y375000D01*
X443000Y329900D01*
X405700Y311000D02*
X384800Y311000D01*
X381900Y308100D01*
X432000Y41000D02*
X446350Y26650D01*
X559150Y26650D01*
X414900Y378000D02*
X386800Y406100D01*
X414900Y378000D02*
X414900Y330500D01*
X422400Y434000D02*
X443700Y455300D01*
X386800Y421800D02*
X386800Y406100D01*
X399000Y434000D02*
X422400Y434000D01*
X399000Y434000D02*
X386800Y421800D01*
X454500Y302100D02*
X432000Y279600D01*
X432000Y41000D01*
X631500Y529900D02*
X632000Y530400D01*
X632000Y555000D01*
X607000Y580000D02*
X564000Y580000D01*
X512000Y632000D01*
X512000Y697000D01*
X508000Y701000D01*
X507000Y701000D01*
X507000Y715200D01*
X507200Y715400D01*
X607000Y580000D02*
X632000Y555000D01*
D26*
X673000Y471000D03*
X642000Y572000D03*
X547000Y560000D03*
D25*
X650000Y494000D02*
X673000Y471000D01*
X650000Y494000D02*
X650000Y565000D01*
X643000Y572000D01*
X642000Y572000D01*
X547000Y560000D02*
X536000Y571000D01*
X484000Y571000D01*
X476000Y579000D01*
X476000Y636000D01*
X485100Y645100D01*
X493100Y645100D01*
X576300Y714700D02*
X593100Y714700D01*
X576300Y714700D02*
X556000Y735000D01*
X495000Y735000D01*
X476000Y716000D02*
X476000Y636000D01*
X476000Y716000D02*
X495000Y735000D01*
X626000Y693000D02*
X647700Y714700D01*
X626000Y693000D02*
X604000Y693000D01*
D26*
X423000Y501000D03*
X423000Y482000D03*
D25*
X423000Y501000D01*
X556000Y645000D02*
X604000Y693000D01*
X556000Y645000D02*
X544000Y645000D01*
X543900Y645100D01*
X750600Y531400D02*
X770300Y531400D01*
X750600Y531400D02*
X732000Y550000D01*
X732000Y574500D01*
X611600Y407100D02*
X611600Y371600D01*
X545700Y305700D02*
X545700Y298300D01*
X545700Y305700D02*
X611600Y371600D01*
X220300Y365100D02*
X220300Y406700D01*
X220300Y365100D02*
X256400Y329000D01*
X317000Y329000D01*
X337100Y308900D01*
X337100Y298300D01*
X127100Y406100D02*
X113000Y392000D01*
X127100Y406100D02*
X191800Y406100D01*
X113000Y337000D02*
X127000Y323000D01*
X127000Y298700D01*
X126600Y298300D01*
X113000Y337000D02*
X113000Y392000D01*
M02*
