M48
;GenerationSoftware,Autodesk,EAGLE,9.6.2*%
;CreationDate,2023-08-08T09:29:10Z*%
FMAT,2
ICI,OFF
METRIC,TZ,000.000
T16C0.350
T15C0.400
T14C0.700
T13C0.813
T12C0.900
T11C1.000
T10C1.016
T9C1.092
T8C1.200
T7C1.300
T6C1.500
T5C1.707
T4C1.753
T3C2.000
T2C2.600
T1C4.089
%
G90
M71
T1
X52105Y5205
X31005Y5205
X9905Y5105
T2
X2300Y31400
X103200Y-1700
X103300Y72100
X2300Y72000
T3
X47670Y36830
X35610Y36830
X26810Y36830
X56470Y36830
X77600Y64450
X68800Y64450
X26680Y64580
X68800Y36900
X14560Y64580
X5760Y64580
X77600Y36900
X5760Y36830
X14560Y36830
X35480Y64580
T4
X49565Y125
X55915Y2665
X28465Y125
X34815Y2665
X7365Y25
X13715Y2565
T5
X47025Y5205
X57185Y5205
X25925Y5205
X36085Y5205
X4825Y5105
X14985Y5105
T6
X41954Y65719
X41954Y71719
T7
X39454Y65719
X39454Y69219
X39454Y72719
X44454Y72719
X44454Y69219
X44454Y65719
T8
X103010Y22130
X2480Y22130
X49480Y22130
X56010Y22130
T9
X50835Y10285
X53375Y10285
X29735Y10285
X32275Y10285
X8635Y10185
X11175Y10185
T10
X16600Y30200
X94870Y30210
X38020Y45990
X24830Y30210
X45450Y30210
X38000Y54000
X24400Y47500
X64770Y71470
X59310Y71470
X62040Y71470
X4780Y27210
X37590Y30210
X61700Y67340
T11
X52070Y29830
X49570Y29830
X33710Y29830
X31210Y29830
X28710Y29830
X54570Y29830
X28580Y57580
X31080Y57580
X70700Y57450
X73200Y57450
X75700Y57450
X33580Y57580
X70700Y29900
X73200Y29900
X75700Y29900
X7660Y57580
X12660Y57580
X7660Y29830
X10160Y29830
X12660Y29830
X10160Y57580
T12
X97500Y61980
X49310Y66550
X49310Y64510
X49310Y62470
X95460Y61980
X93420Y61980
X54390Y62470
X54390Y64510
X54390Y66550
X93420Y67060
X95460Y67060
X63150Y52990
X63150Y45370
X85590Y40780
X97500Y67060
X97570Y34630
X63680Y40710
X63680Y33090
X19180Y40610
X19180Y32990
X22030Y40670
X22030Y33050
X61160Y40710
X61160Y33090
X77030Y50800
X69410Y50800
X26990Y50950
X34610Y50950
X41490Y33050
X41490Y40670
X26990Y53300
X34610Y53300
X94000Y53010
X94000Y45390
X65930Y66390
X65930Y58770
X69410Y53140
X77030Y53140
X82910Y33160
X82910Y40780
X85590Y33160
X95530Y34630
X76990Y47580
X69370Y47580
X69410Y45170
X77030Y45170
X34610Y47530
X26990Y47530
X34610Y45040
X26990Y45040
X44300Y32990
X44300Y40610
X38680Y40610
X38680Y32990
X97540Y7540
X95500Y7540
X93460Y7540
X93460Y2460
X95500Y2460
X97540Y2460
X71540Y2390
X73580Y2390
X75620Y2390
X75620Y7470
X73580Y7470
X71540Y7470
X97570Y39710
X95530Y39710
X93490Y39710
X93490Y34630
T13
X88320Y33220
X88320Y40840
X96980Y51750
X96980Y46670
X44490Y58830
X53260Y71540
X50720Y71540
X67660Y7570
X61580Y59310
X61580Y61850
X61580Y64390
X44370Y45530
X46910Y45530
X59610Y45530
X59610Y53150
X49450Y45530
X51990Y45530
X57070Y45530
X54530Y45530
X57070Y53150
X54530Y53150
X51990Y53150
X49450Y53150
X46910Y53150
X44370Y53150
X67660Y2490
X79200Y7470
X79200Y2390
X40290Y46800
X40290Y51880
X44490Y61910
X39410Y61910
X39410Y58830
T14
X20770Y60570
X20770Y58070
T15
X52600Y55900
T16
X42300Y48200
X42300Y50100
X36200Y32100
X66300Y51200
X61900Y52000
X54700Y56000
X64200Y57200
X67300Y47100
X59900Y55600
M30